<svg xmlns="http://www.w3.org/2000/svg" xmlns:xlink="http://www.w3.org/1999/xlink" width="500" zoomAndPan="magnify" viewBox="0 0 375 374.999991" height="500" preserveAspectRatio="xMidYMid meet" version="1.0"><defs><g/><clipPath id="6947df76e3"><path d="M 48.828125 135.40625 L 144.828125 135.40625 L 144.828125 239.65625 L 48.828125 239.65625 Z M 48.828125 135.40625 " clip-rule="nonzero"/></clipPath><clipPath id="e49e87375b"><path d="M 95 174 L 144.828125 174 L 144.828125 201 L 95 201 Z M 95 174 " clip-rule="nonzero"/></clipPath><clipPath id="3d758b45be"><path d="M 128 174 L 144.828125 174 L 144.828125 227 L 128 227 Z M 128 174 " clip-rule="nonzero"/></clipPath></defs><rect x="-37.5" width="450" fill="#ffffff" y="-37.499999" height="449.999989" fill-opacity="1"/><rect x="-37.5" width="450" fill="#000000" y="-37.499999" height="449.999989" fill-opacity="1"/><g clip-path="url(#6947df76e3)"><path fill="#ffffff" d="M 72.433594 187.496094 C 72.433594 168.347656 85.8125 155.269531 105.394531 155.269531 C 112.789062 155.269531 119.296875 157.15625 125.105469 161.148438 L 144.539062 150.78125 C 134.777344 140.71875 120.835938 135.40625 104.246094 135.40625 C 72.148438 135.40625 48.835938 157.136719 48.835938 187.496094 C 48.835938 217.855469 72.148438 239.585938 104.246094 239.585938 C 116.410156 239.585938 127.144531 236.722656 135.84375 231.257812 L 125.085938 213.84375 C 119.273438 217.835938 112.789062 219.722656 105.371094 219.722656 C 85.8125 219.722656 72.433594 206.644531 72.433594 187.496094 Z M 72.433594 187.496094 " fill-opacity="1" fill-rule="evenodd"/></g><g clip-path="url(#e49e87375b)"><path fill="#00d9d2" d="M 128.316406 200.527344 L 144.539062 174.550781 L 95.613281 200.660156 L 123.242188 200.550781 Z M 128.316406 200.527344 " fill-opacity="1" fill-rule="evenodd"/></g><g clip-path="url(#3d758b45be)"><path fill="#37b594" d="M 144.539062 174.550781 L 128.316406 200.527344 L 144.539062 226.789062 Z M 144.539062 174.550781 " fill-opacity="1" fill-rule="evenodd"/></g><g fill="#ffffff" fill-opacity="0.4"><g transform="translate(162.569935, 184.335177)"><g><path d="M 7 0.515625 C 5.394531 0.515625 3.988281 0.164062 2.78125 -0.53125 C 1.570312 -1.238281 0.644531 -2.222656 0 -3.484375 L 3.921875 -6.765625 C 4.679688 -5.285156 5.691406 -4.546875 6.953125 -4.546875 C 7.890625 -4.546875 8.640625 -4.878906 9.203125 -5.546875 C 9.773438 -6.210938 10.0625 -7.085938 10.0625 -8.171875 L 10.0625 -19.71875 L 3.703125 -19.71875 L 3.703125 -24.796875 L 15.46875 -24.796875 L 15.46875 -8.328125 C 15.46875 -7.015625 15.253906 -5.816406 14.828125 -4.734375 C 14.410156 -3.648438 13.828125 -2.71875 13.078125 -1.9375 C 12.328125 -1.164062 11.429688 -0.5625 10.390625 -0.125 C 9.359375 0.300781 8.226562 0.515625 7 0.515625 Z M 7 0.515625 "/></g></g></g><g fill="#ffffff" fill-opacity="0.4"><g transform="translate(184.250008, 184.335177)"><g><path d="M 2.78125 -24.796875 L 12.578125 -24.796875 C 14.429688 -24.796875 16.140625 -24.476562 17.703125 -23.84375 C 19.265625 -23.21875 20.617188 -22.351562 21.765625 -21.25 C 22.921875 -20.15625 23.820312 -18.847656 24.46875 -17.328125 C 25.125 -15.816406 25.453125 -14.171875 25.453125 -12.390625 C 25.453125 -10.617188 25.125 -8.976562 24.46875 -7.46875 C 23.820312 -5.96875 22.921875 -4.660156 21.765625 -3.546875 C 20.617188 -2.441406 19.265625 -1.570312 17.703125 -0.9375 C 16.140625 -0.3125 14.429688 0 12.578125 0 L 2.78125 0 Z M 12.609375 -5.0625 C 13.648438 -5.0625 14.601562 -5.242188 15.46875 -5.609375 C 16.332031 -5.984375 17.082031 -6.5 17.71875 -7.15625 C 18.363281 -7.8125 18.863281 -8.582031 19.21875 -9.46875 C 19.582031 -10.351562 19.765625 -11.328125 19.765625 -12.390625 C 19.765625 -13.453125 19.582031 -14.425781 19.21875 -15.3125 C 18.863281 -16.207031 18.363281 -16.976562 17.71875 -17.625 C 17.082031 -18.28125 16.332031 -18.789062 15.46875 -19.15625 C 14.601562 -19.53125 13.648438 -19.71875 12.609375 -19.71875 L 8.171875 -19.71875 L 8.171875 -5.0625 Z M 12.609375 -5.0625 "/></g></g></g><g fill="#ffffff" fill-opacity="0.4"><g transform="translate(214.624154, 184.335177)"><g><path d="M 10.140625 -25.234375 L 13.578125 -25.234375 L 23.34375 0 L 17.65625 0 L 16.125 -4.1875 L 7.578125 -4.1875 L 6.109375 0 L 0.375 0 Z M 14.46875 -8.84375 L 11.875 -16.125 L 9.25 -8.84375 Z M 14.46875 -8.84375 "/></g></g></g><g fill="#ffffff" fill-opacity="1"><g transform="translate(160.934752, 182.700002)"><g><path d="M 7 0.515625 C 5.394531 0.515625 3.988281 0.164062 2.78125 -0.53125 C 1.570312 -1.238281 0.644531 -2.222656 0 -3.484375 L 3.921875 -6.765625 C 4.679688 -5.285156 5.691406 -4.546875 6.953125 -4.546875 C 7.890625 -4.546875 8.640625 -4.878906 9.203125 -5.546875 C 9.773438 -6.210938 10.0625 -7.085938 10.0625 -8.171875 L 10.0625 -19.71875 L 3.703125 -19.71875 L 3.703125 -24.796875 L 15.46875 -24.796875 L 15.46875 -8.328125 C 15.46875 -7.015625 15.253906 -5.816406 14.828125 -4.734375 C 14.410156 -3.648438 13.828125 -2.71875 13.078125 -1.9375 C 12.328125 -1.164062 11.429688 -0.5625 10.390625 -0.125 C 9.359375 0.300781 8.226562 0.515625 7 0.515625 Z M 7 0.515625 "/></g></g></g><g fill="#ffffff" fill-opacity="1"><g transform="translate(182.614826, 182.700002)"><g><path d="M 2.78125 -24.796875 L 12.578125 -24.796875 C 14.429688 -24.796875 16.140625 -24.476562 17.703125 -23.84375 C 19.265625 -23.21875 20.617188 -22.351562 21.765625 -21.25 C 22.921875 -20.15625 23.820312 -18.847656 24.46875 -17.328125 C 25.125 -15.816406 25.453125 -14.171875 25.453125 -12.390625 C 25.453125 -10.617188 25.125 -8.976562 24.46875 -7.46875 C 23.820312 -5.96875 22.921875 -4.660156 21.765625 -3.546875 C 20.617188 -2.441406 19.265625 -1.570312 17.703125 -0.9375 C 16.140625 -0.3125 14.429688 0 12.578125 0 L 2.78125 0 Z M 12.609375 -5.0625 C 13.648438 -5.0625 14.601562 -5.242188 15.46875 -5.609375 C 16.332031 -5.984375 17.082031 -6.5 17.71875 -7.15625 C 18.363281 -7.8125 18.863281 -8.582031 19.21875 -9.46875 C 19.582031 -10.351562 19.765625 -11.328125 19.765625 -12.390625 C 19.765625 -13.453125 19.582031 -14.425781 19.21875 -15.3125 C 18.863281 -16.207031 18.363281 -16.976562 17.71875 -17.625 C 17.082031 -18.28125 16.332031 -18.789062 15.46875 -19.15625 C 14.601562 -19.53125 13.648438 -19.71875 12.609375 -19.71875 L 8.171875 -19.71875 L 8.171875 -5.0625 Z M 12.609375 -5.0625 "/></g></g></g><g fill="#ffffff" fill-opacity="1"><g transform="translate(212.988971, 182.700002)"><g><path d="M 10.140625 -25.234375 L 13.578125 -25.234375 L 23.34375 0 L 17.65625 0 L 16.125 -4.1875 L 7.578125 -4.1875 L 6.109375 0 L 0.375 0 Z M 14.46875 -8.84375 L 11.875 -16.125 L 9.25 -8.84375 Z M 14.46875 -8.84375 "/></g></g></g><g fill="#00d9d2" fill-opacity="0.4"><g transform="translate(162.104552, 216.419398)"><g><path d="M 4.34375 0 L 1.015625 0 L 1.015625 -11.4375 L 4.34375 -11.4375 C 6.28125 -11.4375 7.757812 -10.941406 8.78125 -9.953125 C 9.8125 -8.960938 10.328125 -7.546875 10.328125 -5.703125 C 10.328125 -3.878906 9.8125 -2.472656 8.78125 -1.484375 C 7.75 -0.492188 6.269531 0 4.34375 0 Z M 3.171875 -9.5 L 3.171875 -1.9375 L 4.3125 -1.9375 C 5.070312 -1.9375 5.738281 -2.050781 6.3125 -2.28125 C 6.894531 -2.519531 7.347656 -2.914062 7.671875 -3.46875 C 8.003906 -4.019531 8.171875 -4.765625 8.171875 -5.703125 C 8.171875 -6.597656 8.007812 -7.320312 7.6875 -7.875 C 7.363281 -8.425781 6.914062 -8.832031 6.34375 -9.09375 C 5.769531 -9.363281 5.097656 -9.5 4.328125 -9.5 Z M 3.171875 -9.5 "/></g></g></g><g fill="#00d9d2" fill-opacity="0.4"><g transform="translate(185.001341, 216.419398)"><g><path d="M 3.171875 0 L 1.015625 0 L 1.015625 -11.4375 L 3.171875 -11.4375 Z M 3.171875 0 "/></g></g></g><g fill="#00d9d2" fill-opacity="0.4"><g transform="translate(201.188157, 216.419398)"><g><path d="M 3.171875 0 L 1.015625 0 L 1.015625 -11.4375 L 8.640625 -11.4375 L 8.640625 -9.5 L 3.171875 -9.5 L 3.171875 -6.6875 L 8.078125 -6.6875 L 8.078125 -4.765625 L 3.171875 -4.765625 Z M 3.171875 0 "/></g></g></g><g fill="#00d9d2" fill-opacity="0.4"><g transform="translate(222.227725, 216.419398)"><g><path d="M 3.171875 0 L 1.015625 0 L 1.015625 -11.4375 L 8.640625 -11.4375 L 8.640625 -9.5 L 3.171875 -9.5 L 3.171875 -6.6875 L 8.078125 -6.6875 L 8.078125 -4.765625 L 3.171875 -4.765625 Z M 3.171875 0 "/></g></g></g><g fill="#00d9d2" fill-opacity="0.4"><g transform="translate(243.267292, 216.419398)"><g><path d="M 5.515625 0.203125 C 4.421875 0.203125 3.535156 0.0195312 2.859375 -0.34375 C 2.179688 -0.707031 1.6875 -1.21875 1.375 -1.875 C 1.0625 -2.53125 0.90625 -3.289062 0.90625 -4.15625 L 0.90625 -11.4375 L 3.078125 -11.4375 L 3.078125 -4.15625 C 3.078125 -3.6875 3.148438 -3.265625 3.296875 -2.890625 C 3.441406 -2.523438 3.691406 -2.238281 4.046875 -2.03125 C 4.410156 -1.820312 4.898438 -1.71875 5.515625 -1.71875 C 6.128906 -1.71875 6.613281 -1.820312 6.96875 -2.03125 C 7.320312 -2.238281 7.570312 -2.523438 7.71875 -2.890625 C 7.875 -3.265625 7.953125 -3.6875 7.953125 -4.15625 L 7.953125 -11.4375 L 10.125 -11.4375 L 10.125 -4.15625 C 10.125 -3.289062 9.96875 -2.53125 9.65625 -1.875 C 9.34375 -1.21875 8.84375 -0.707031 8.15625 -0.34375 C 7.476562 0.0195312 6.597656 0.203125 5.515625 0.203125 Z M 5.515625 0.203125 "/></g></g></g><g fill="#00d9d2" fill-opacity="0.4"><g transform="translate(266.298887, 216.419398)"><g><path d="M 5.5625 0.203125 C 5.007812 0.203125 4.453125 0.132812 3.890625 0 C 3.328125 -0.125 2.804688 -0.335938 2.328125 -0.640625 C 1.847656 -0.941406 1.441406 -1.34375 1.109375 -1.84375 C 0.785156 -2.351562 0.59375 -2.976562 0.53125 -3.71875 L 2.75 -3.71875 C 2.882812 -3.175781 3.097656 -2.753906 3.390625 -2.453125 C 3.679688 -2.148438 4.015625 -1.9375 4.390625 -1.8125 C 4.773438 -1.695312 5.171875 -1.640625 5.578125 -1.640625 C 6.160156 -1.640625 6.648438 -1.757812 7.046875 -2 C 7.453125 -2.25 7.65625 -2.648438 7.65625 -3.203125 C 7.65625 -3.609375 7.523438 -3.921875 7.265625 -4.140625 C 7.003906 -4.359375 6.664062 -4.53125 6.25 -4.65625 C 5.84375 -4.78125 5.394531 -4.890625 4.90625 -4.984375 C 4.4375 -5.097656 3.960938 -5.21875 3.484375 -5.34375 C 3.015625 -5.476562 2.582031 -5.660156 2.1875 -5.890625 C 1.800781 -6.117188 1.488281 -6.425781 1.25 -6.8125 C 1.019531 -7.195312 0.90625 -7.6875 0.90625 -8.28125 C 0.90625 -9.019531 1.082031 -9.632812 1.4375 -10.125 C 1.789062 -10.625 2.269531 -11 2.875 -11.25 C 3.488281 -11.507812 4.175781 -11.640625 4.9375 -11.640625 C 5.675781 -11.640625 6.367188 -11.507812 7.015625 -11.25 C 7.671875 -10.988281 8.222656 -10.59375 8.671875 -10.0625 C 9.117188 -9.539062 9.40625 -8.863281 9.53125 -8.03125 L 7.328125 -8.03125 C 7.191406 -8.644531 6.898438 -9.09375 6.453125 -9.375 C 6.003906 -9.65625 5.488281 -9.796875 4.90625 -9.796875 C 4.363281 -9.796875 3.914062 -9.679688 3.5625 -9.453125 C 3.21875 -9.234375 3.046875 -8.90625 3.046875 -8.46875 C 3.046875 -8.113281 3.164062 -7.835938 3.40625 -7.640625 C 3.65625 -7.441406 3.976562 -7.285156 4.375 -7.171875 C 4.769531 -7.054688 5.203125 -6.941406 5.671875 -6.828125 C 6.148438 -6.734375 6.628906 -6.613281 7.109375 -6.46875 C 7.597656 -6.320312 8.046875 -6.125 8.453125 -5.875 C 8.867188 -5.632812 9.203125 -5.304688 9.453125 -4.890625 C 9.703125 -4.484375 9.828125 -3.957031 9.828125 -3.3125 C 9.828125 -2.226562 9.453125 -1.367188 8.703125 -0.734375 C 7.953125 -0.109375 6.90625 0.203125 5.5625 0.203125 Z M 5.5625 0.203125 "/></g></g></g><g fill="#00d9d2" fill-opacity="0.4"><g transform="translate(288.716392, 216.419398)"><g><path d="M 3.171875 0 L 1.015625 0 L 1.015625 -11.4375 L 3.171875 -11.4375 Z M 3.171875 0 "/></g></g></g><g fill="#00d9d2" fill-opacity="0.4"><g transform="translate(304.903202, 216.419398)"><g><path d="M 6.125 0.203125 C 5.1875 0.203125 4.367188 0.046875 3.671875 -0.265625 C 2.972656 -0.585938 2.394531 -1.019531 1.9375 -1.5625 C 1.488281 -2.113281 1.148438 -2.75 0.921875 -3.46875 C 0.691406 -4.1875 0.578125 -4.9375 0.578125 -5.71875 C 0.578125 -6.507812 0.691406 -7.257812 0.921875 -7.96875 C 1.148438 -8.6875 1.488281 -9.320312 1.9375 -9.875 C 2.394531 -10.425781 2.972656 -10.859375 3.671875 -11.171875 C 4.367188 -11.484375 5.1875 -11.640625 6.125 -11.640625 C 7.070312 -11.640625 7.894531 -11.484375 8.59375 -11.171875 C 9.300781 -10.859375 9.878906 -10.425781 10.328125 -9.875 C 10.785156 -9.320312 11.125 -8.6875 11.34375 -7.96875 C 11.570312 -7.257812 11.6875 -6.507812 11.6875 -5.71875 C 11.6875 -4.9375 11.570312 -4.1875 11.34375 -3.46875 C 11.125 -2.75 10.785156 -2.113281 10.328125 -1.5625 C 9.878906 -1.019531 9.300781 -0.585938 8.59375 -0.265625 C 7.894531 0.046875 7.070312 0.203125 6.125 0.203125 Z M 6.125 -1.71875 C 6.832031 -1.71875 7.429688 -1.882812 7.921875 -2.21875 C 8.410156 -2.5625 8.785156 -3.035156 9.046875 -3.640625 C 9.304688 -4.242188 9.4375 -4.9375 9.4375 -5.71875 C 9.4375 -6.507812 9.304688 -7.203125 9.046875 -7.796875 C 8.785156 -8.390625 8.410156 -8.851562 7.921875 -9.1875 C 7.429688 -9.519531 6.832031 -9.6875 6.125 -9.6875 C 5.4375 -9.6875 4.84375 -9.519531 4.34375 -9.1875 C 3.851562 -8.851562 3.476562 -8.390625 3.21875 -7.796875 C 2.957031 -7.203125 2.828125 -6.507812 2.828125 -5.71875 C 2.828125 -4.9375 2.957031 -4.242188 3.21875 -3.640625 C 3.476562 -3.035156 3.851562 -2.5625 4.34375 -2.21875 C 4.84375 -1.882812 5.4375 -1.71875 6.125 -1.71875 Z M 6.125 -1.71875 "/></g></g></g><g fill="#00d9d2" fill-opacity="0.4"><g transform="translate(329.177929, 216.419398)"><g><path d="M 3.171875 0 L 1.015625 0 L 1.015625 -11.4375 L 3.453125 -11.4375 L 8.140625 -3.25 L 8.140625 -11.4375 L 10.296875 -11.4375 L 10.296875 0 L 7.859375 0 L 3.171875 -8.203125 Z M 3.171875 0 "/></g></g></g><g fill="#37b594" fill-opacity="1"><g transform="translate(161.442018, 215.756864)"><g><path d="M 4.34375 0 L 1.015625 0 L 1.015625 -11.4375 L 4.34375 -11.4375 C 6.28125 -11.4375 7.757812 -10.941406 8.78125 -9.953125 C 9.8125 -8.960938 10.328125 -7.546875 10.328125 -5.703125 C 10.328125 -3.878906 9.8125 -2.472656 8.78125 -1.484375 C 7.75 -0.492188 6.269531 0 4.34375 0 Z M 3.171875 -9.5 L 3.171875 -1.9375 L 4.3125 -1.9375 C 5.070312 -1.9375 5.738281 -2.050781 6.3125 -2.28125 C 6.894531 -2.519531 7.347656 -2.914062 7.671875 -3.46875 C 8.003906 -4.019531 8.171875 -4.765625 8.171875 -5.703125 C 8.171875 -6.597656 8.007812 -7.320312 7.6875 -7.875 C 7.363281 -8.425781 6.914062 -8.832031 6.34375 -9.09375 C 5.769531 -9.363281 5.097656 -9.5 4.328125 -9.5 Z M 3.171875 -9.5 "/></g></g></g><g fill="#37b594" fill-opacity="1"><g transform="translate(184.338807, 215.756864)"><g><path d="M 3.171875 0 L 1.015625 0 L 1.015625 -11.4375 L 3.171875 -11.4375 Z M 3.171875 0 "/></g></g></g><g fill="#37b594" fill-opacity="1"><g transform="translate(200.525622, 215.756864)"><g><path d="M 3.171875 0 L 1.015625 0 L 1.015625 -11.4375 L 8.640625 -11.4375 L 8.640625 -9.5 L 3.171875 -9.5 L 3.171875 -6.6875 L 8.078125 -6.6875 L 8.078125 -4.765625 L 3.171875 -4.765625 Z M 3.171875 0 "/></g></g></g><g fill="#37b594" fill-opacity="1"><g transform="translate(221.56519, 215.756864)"><g><path d="M 3.171875 0 L 1.015625 0 L 1.015625 -11.4375 L 8.640625 -11.4375 L 8.640625 -9.5 L 3.171875 -9.5 L 3.171875 -6.6875 L 8.078125 -6.6875 L 8.078125 -4.765625 L 3.171875 -4.765625 Z M 3.171875 0 "/></g></g></g><g fill="#37b594" fill-opacity="1"><g transform="translate(242.604758, 215.756864)"><g><path d="M 5.515625 0.203125 C 4.421875 0.203125 3.535156 0.0195312 2.859375 -0.34375 C 2.179688 -0.707031 1.6875 -1.21875 1.375 -1.875 C 1.0625 -2.53125 0.90625 -3.289062 0.90625 -4.15625 L 0.90625 -11.4375 L 3.078125 -11.4375 L 3.078125 -4.15625 C 3.078125 -3.6875 3.148438 -3.265625 3.296875 -2.890625 C 3.441406 -2.523438 3.691406 -2.238281 4.046875 -2.03125 C 4.410156 -1.820312 4.898438 -1.71875 5.515625 -1.71875 C 6.128906 -1.71875 6.613281 -1.820312 6.96875 -2.03125 C 7.320312 -2.238281 7.570312 -2.523438 7.71875 -2.890625 C 7.875 -3.265625 7.953125 -3.6875 7.953125 -4.15625 L 7.953125 -11.4375 L 10.125 -11.4375 L 10.125 -4.15625 C 10.125 -3.289062 9.96875 -2.53125 9.65625 -1.875 C 9.34375 -1.21875 8.84375 -0.707031 8.15625 -0.34375 C 7.476562 0.0195312 6.597656 0.203125 5.515625 0.203125 Z M 5.515625 0.203125 "/></g></g></g><g fill="#37b594" fill-opacity="1"><g transform="translate(265.636353, 215.756864)"><g><path d="M 5.5625 0.203125 C 5.007812 0.203125 4.453125 0.132812 3.890625 0 C 3.328125 -0.125 2.804688 -0.335938 2.328125 -0.640625 C 1.847656 -0.941406 1.441406 -1.34375 1.109375 -1.84375 C 0.785156 -2.351562 0.59375 -2.976562 0.53125 -3.71875 L 2.75 -3.71875 C 2.882812 -3.175781 3.097656 -2.753906 3.390625 -2.453125 C 3.679688 -2.148438 4.015625 -1.9375 4.390625 -1.8125 C 4.773438 -1.695312 5.171875 -1.640625 5.578125 -1.640625 C 6.160156 -1.640625 6.648438 -1.757812 7.046875 -2 C 7.453125 -2.25 7.65625 -2.648438 7.65625 -3.203125 C 7.65625 -3.609375 7.523438 -3.921875 7.265625 -4.140625 C 7.003906 -4.359375 6.664062 -4.53125 6.25 -4.65625 C 5.84375 -4.78125 5.394531 -4.890625 4.90625 -4.984375 C 4.4375 -5.097656 3.960938 -5.21875 3.484375 -5.34375 C 3.015625 -5.476562 2.582031 -5.660156 2.1875 -5.890625 C 1.800781 -6.117188 1.488281 -6.425781 1.25 -6.8125 C 1.019531 -7.195312 0.90625 -7.6875 0.90625 -8.28125 C 0.90625 -9.019531 1.082031 -9.632812 1.4375 -10.125 C 1.789062 -10.625 2.269531 -11 2.875 -11.25 C 3.488281 -11.507812 4.175781 -11.640625 4.9375 -11.640625 C 5.675781 -11.640625 6.367188 -11.507812 7.015625 -11.25 C 7.671875 -10.988281 8.222656 -10.59375 8.671875 -10.0625 C 9.117188 -9.539062 9.40625 -8.863281 9.53125 -8.03125 L 7.328125 -8.03125 C 7.191406 -8.644531 6.898438 -9.09375 6.453125 -9.375 C 6.003906 -9.65625 5.488281 -9.796875 4.90625 -9.796875 C 4.363281 -9.796875 3.914062 -9.679688 3.5625 -9.453125 C 3.21875 -9.234375 3.046875 -8.90625 3.046875 -8.46875 C 3.046875 -8.113281 3.164062 -7.835938 3.40625 -7.640625 C 3.65625 -7.441406 3.976562 -7.285156 4.375 -7.171875 C 4.769531 -7.054688 5.203125 -6.941406 5.671875 -6.828125 C 6.148438 -6.734375 6.628906 -6.613281 7.109375 -6.46875 C 7.597656 -6.320312 8.046875 -6.125 8.453125 -5.875 C 8.867188 -5.632812 9.203125 -5.304688 9.453125 -4.890625 C 9.703125 -4.484375 9.828125 -3.957031 9.828125 -3.3125 C 9.828125 -2.226562 9.453125 -1.367188 8.703125 -0.734375 C 7.953125 -0.109375 6.90625 0.203125 5.5625 0.203125 Z M 5.5625 0.203125 "/></g></g></g><g fill="#37b594" fill-opacity="1"><g transform="translate(288.053858, 215.756864)"><g><path d="M 3.171875 0 L 1.015625 0 L 1.015625 -11.4375 L 3.171875 -11.4375 Z M 3.171875 0 "/></g></g></g><g fill="#37b594" fill-opacity="1"><g transform="translate(304.240668, 215.756864)"><g><path d="M 6.125 0.203125 C 5.1875 0.203125 4.367188 0.046875 3.671875 -0.265625 C 2.972656 -0.585938 2.394531 -1.019531 1.9375 -1.5625 C 1.488281 -2.113281 1.148438 -2.75 0.921875 -3.46875 C 0.691406 -4.1875 0.578125 -4.9375 0.578125 -5.71875 C 0.578125 -6.507812 0.691406 -7.257812 0.921875 -7.96875 C 1.148438 -8.6875 1.488281 -9.320312 1.9375 -9.875 C 2.394531 -10.425781 2.972656 -10.859375 3.671875 -11.171875 C 4.367188 -11.484375 5.1875 -11.640625 6.125 -11.640625 C 7.070312 -11.640625 7.894531 -11.484375 8.59375 -11.171875 C 9.300781 -10.859375 9.878906 -10.425781 10.328125 -9.875 C 10.785156 -9.320312 11.125 -8.6875 11.34375 -7.96875 C 11.570312 -7.257812 11.6875 -6.507812 11.6875 -5.71875 C 11.6875 -4.9375 11.570312 -4.1875 11.34375 -3.46875 C 11.125 -2.75 10.785156 -2.113281 10.328125 -1.5625 C 9.878906 -1.019531 9.300781 -0.585938 8.59375 -0.265625 C 7.894531 0.046875 7.070312 0.203125 6.125 0.203125 Z M 6.125 -1.71875 C 6.832031 -1.71875 7.429688 -1.882812 7.921875 -2.21875 C 8.410156 -2.5625 8.785156 -3.035156 9.046875 -3.640625 C 9.304688 -4.242188 9.4375 -4.9375 9.4375 -5.71875 C 9.4375 -6.507812 9.304688 -7.203125 9.046875 -7.796875 C 8.785156 -8.390625 8.410156 -8.851562 7.921875 -9.1875 C 7.429688 -9.519531 6.832031 -9.6875 6.125 -9.6875 C 5.4375 -9.6875 4.84375 -9.519531 4.34375 -9.1875 C 3.851562 -8.851562 3.476562 -8.390625 3.21875 -7.796875 C 2.957031 -7.203125 2.828125 -6.507812 2.828125 -5.71875 C 2.828125 -4.9375 2.957031 -4.242188 3.21875 -3.640625 C 3.476562 -3.035156 3.851562 -2.5625 4.34375 -2.21875 C 4.84375 -1.882812 5.4375 -1.71875 6.125 -1.71875 Z M 6.125 -1.71875 "/></g></g></g><g fill="#37b594" fill-opacity="1"><g transform="translate(328.515395, 215.756864)"><g><path d="M 3.171875 0 L 1.015625 0 L 1.015625 -11.4375 L 3.453125 -11.4375 L 8.140625 -3.25 L 8.140625 -11.4375 L 10.296875 -11.4375 L 10.296875 0 L 7.859375 0 L 3.171875 -8.203125 Z M 3.171875 0 "/></g></g></g></svg>